<svg width="23" height="23" viewBox="0 0 23 23" fill="none" xmlns="http://www.w3.org/2000/svg">
<path d="M22.0624 20.995L15.9264 14.8589C17.4008 13.0887 18.1361 10.8183 17.9792 8.51986C17.8223 6.22143 16.7853 4.07196 15.0839 2.51862C13.3826 0.965276 11.1479 0.127648 8.8447 0.179986C6.54151 0.232324 4.34716 1.1706 2.71814 2.79962C1.08912 4.42864 0.150842 6.62299 0.0985043 8.92619C0.0461663 11.2294 0.883794 13.4641 2.43714 15.1654C3.99048 16.8668 6.13994 17.9037 8.43838 18.0607C10.7368 18.2176 13.0073 17.4823 14.7774 16.0078L20.9135 22.1439L22.0624 20.995ZM1.74995 9.14393C1.74995 7.69765 2.17882 6.28386 2.98233 5.08132C3.78583 3.87879 4.92789 2.94153 6.26408 2.38806C7.60026 1.8346 9.07056 1.68978 10.489 1.97194C11.9075 2.25409 13.2105 2.95054 14.2332 3.97321C15.2558 4.99588 15.9523 6.29885 16.2344 7.71733C16.5166 9.13582 16.3718 10.6061 15.8183 11.9423C15.2649 13.2785 14.3276 14.4205 13.1251 15.2241C11.9225 16.0276 10.5087 16.4564 9.06245 16.4564C7.12371 16.4543 5.265 15.6832 3.8941 14.3123C2.52321 12.9414 1.7521 11.0827 1.74995 9.14393Z" fill="white"/>
</svg>
