<svg width="21" height="19" viewBox="0 0 21 19" fill="none" xmlns="http://www.w3.org/2000/svg">
<path fill-rule="evenodd" clip-rule="evenodd" d="M15.6455 0.125C17.0423 0.125 18.3861 0.677083 19.3746 1.66771C20.3642 2.65625 20.9173 3.98958 20.9173 5.38542V13.6146C20.9173 16.5208 18.5527 18.875 15.6455 18.875H5.35482C2.44753 18.875 0.0839844 16.5208 0.0839844 13.6146V5.38542C0.0839844 2.47917 2.43711 0.125 5.35482 0.125H15.6455ZM17.3027 6.9375L17.3861 6.85417C17.635 6.55208 17.635 6.11458 17.3746 5.8125C17.2298 5.65729 17.0309 5.5625 16.8236 5.54167C16.6048 5.53021 16.3965 5.60417 16.2392 5.75L11.5423 9.5C10.9382 10.001 10.0725 10.001 9.45899 9.5L4.77148 5.75C4.44753 5.51042 3.99961 5.54167 3.72982 5.82292C3.44857 6.10417 3.41732 6.55208 3.65586 6.86458L3.79232 7L8.53191 10.6979C9.11525 11.1562 9.82254 11.4062 10.5632 11.4062C11.3017 11.4062 12.0215 11.1562 12.6038 10.6979L17.3027 6.9375Z" fill="#6C00FF"/>
</svg>
