<svg width="19" height="21" viewBox="0 0 19 21" fill="none" xmlns="http://www.w3.org/2000/svg">
<path fill-rule="evenodd" clip-rule="evenodd" d="M0.645752 8.74787C0.645752 3.9563 4.64979 0.0834961 9.49304 0.0834961C14.35 0.0834961 18.3541 3.9563 18.3541 8.74787C18.3541 11.1623 17.476 13.4039 16.0307 15.3039C14.4362 17.3996 12.471 19.2257 10.2588 20.6589C9.75252 20.9902 9.29565 21.0152 8.73992 20.6589C6.51527 19.2257 4.55001 17.3996 2.96919 15.3039C1.52281 13.4039 0.645752 11.1623 0.645752 8.74787ZM6.57724 9.01766C6.57724 10.6228 7.88711 11.8853 9.49304 11.8853C11.1001 11.8853 12.4226 10.6228 12.4226 9.01766C12.4226 7.42495 11.1001 6.10103 9.49304 6.10103C7.88711 6.10103 6.57724 7.42495 6.57724 9.01766Z" fill="#6C00FF"/>
</svg>
