<svg width="34" height="34" viewBox="0 0 34 34" fill="none" xmlns="http://www.w3.org/2000/svg">
<path d="M26.2666 0.333252H7.68331C3.63331 0.333252 0.333313 3.63325 0.333313 7.68325V18.5166V18.8499C0.333313 22.9166 3.63331 26.1999 7.68331 26.1999H14.0833C15 26.1999 15.75 26.9499 15.75 27.8666V29.4833C15.75 30.3999 15 31.1499 14.0833 31.1499H10.05C9.36665 31.1499 8.79998 31.7166 8.79998 32.3999C8.79998 33.0833 9.34998 33.6666 10.05 33.6666H23.9666C24.65 33.6666 25.2166 33.0999 25.2166 32.4166C25.2166 31.7333 24.65 31.1666 23.9666 31.1666H19.9333C19.0166 31.1666 18.2666 30.4166 18.2666 29.4999V27.8833C18.2666 26.9666 19.0166 26.2166 19.9333 26.2166H26.2833C30.35 26.2166 33.6333 22.9166 33.6333 18.8666V18.5333V7.69992C33.6166 3.63325 30.3166 0.333252 26.2666 0.333252Z" fill="white"/>
</svg>
