<svg width="28" height="34" viewBox="0 0 28 34" fill="none" xmlns="http://www.w3.org/2000/svg">
<path d="M21.0666 0.333252H6.93329C2.33329 0.333252 0.666626 1.99992 0.666626 6.68325V27.3166C0.666626 31.9999 2.33329 33.6666 6.93329 33.6666H21.05C25.6666 33.6666 27.3333 31.9999 27.3333 27.3166V6.68325C27.3333 1.99992 25.6666 0.333252 21.0666 0.333252ZM14 29.1666C12.4 29.1666 11.0833 27.8499 11.0833 26.2499C11.0833 24.6499 12.4 23.3333 14 23.3333C15.6 23.3333 16.9166 24.6499 16.9166 26.2499C16.9166 27.8499 15.6 29.1666 14 29.1666ZM17.3333 7.41658H10.6666C9.98329 7.41658 9.41663 6.84992 9.41663 6.16658C9.41663 5.48325 9.98329 4.91658 10.6666 4.91658H17.3333C18.0166 4.91658 18.5833 5.48325 18.5833 6.16658C18.5833 6.84992 18.0166 7.41658 17.3333 7.41658Z" fill="white"/>
</svg>
