<svg width="194" height="43" viewBox="0 0 194 43" fill="none" xmlns="http://www.w3.org/2000/svg">
<g clip-path="url(#clip0_105_65)">
<path fill-rule="evenodd" clip-rule="evenodd" d="M13.3801 1.70349C11.1787 1.70349 9.06761 2.57797 7.51103 4.13454L0 11.6455V15.0836C0 17.5125 1.04336 19.6978 2.70635 21.2157C1.04336 22.7335 0 24.9188 0 27.3478V30.7858L7.51103 38.2968C9.06761 39.8534 11.1787 40.7279 13.3801 40.7279C15.8091 40.7279 17.9943 39.6845 19.5122 38.0215C21.03 39.6845 23.2153 40.7279 25.6443 40.7279C27.8456 40.7279 29.9568 39.8534 31.5134 38.2968L39.0244 30.7858V27.3478C39.0244 24.9188 37.9811 22.7335 36.318 21.2157C37.9811 19.6978 39.0244 17.5125 39.0244 15.0836V11.6455L31.5134 4.13454C29.9568 2.57797 27.8456 1.70349 25.6443 1.70349C23.2153 1.70349 21.03 2.74684 19.5122 4.40984C17.9943 2.74684 15.8091 1.70349 13.3801 1.70349ZM25.1305 21.2157C25.037 21.1303 24.9452 21.0426 24.8552 20.9526L19.5122 15.6096L14.1692 20.9526C14.0792 21.0426 13.9874 21.1303 13.8938 21.2157C13.9874 21.301 14.0792 21.3887 14.1692 21.4787L19.5122 26.8217L24.8552 21.4787C24.9452 21.3887 25.037 21.301 25.1305 21.2157ZM21.6802 30.7858V32.4278C21.6802 34.617 23.455 36.3919 25.6443 36.3919C26.6956 36.3919 27.7039 35.9742 28.4473 35.2308L34.6884 28.9897V27.3478C34.6884 25.1585 32.9135 23.3837 30.7243 23.3837C29.673 23.3837 28.6647 23.8013 27.9213 24.5447L21.6802 30.7858ZM17.3442 30.7858L11.1031 24.5447C10.3597 23.8013 9.35145 23.3837 8.30011 23.3837C6.11082 23.3837 4.33604 25.1585 4.33604 27.3478V28.9897L10.5771 35.2308C11.3205 35.9742 12.3288 36.3919 13.3801 36.3919C15.5694 36.3919 17.3442 34.617 17.3442 32.4278V30.7858ZM17.3442 10.0036V11.6455L11.1031 17.8866C10.3597 18.63 9.35145 19.0477 8.30011 19.0477C6.11082 19.0477 4.33604 17.2728 4.33604 15.0836V13.4416L10.5771 7.20058C11.3205 6.45717 12.3288 6.03954 13.3801 6.03954C15.5694 6.03954 17.3442 7.81431 17.3442 10.0036ZM27.9213 17.8866L21.6802 11.6455V10.0036C21.6802 7.81431 23.455 6.03954 25.6443 6.03954C26.6956 6.03954 27.7039 6.45717 28.4473 7.20058L34.6884 13.4416V15.0836C34.6884 17.2728 32.9135 19.0477 30.7243 19.0477C29.673 19.0477 28.6647 18.63 27.9213 17.8866Z" fill="#422A3C"/>
</g>
<path d="M52.2001 25.375C52.9234 25.375 53.4834 25.5966 53.8801 26.04C54.2767 26.4833 54.4751 27.0316 54.4751 27.685C54.4751 28.315 54.3701 28.8283 54.1601 29.225C55.1867 30.065 56.3651 30.485 57.6951 30.485C59.0484 30.485 60.0634 30.1816 60.7401 29.575C61.4167 28.945 61.7551 28.0933 61.7551 27.02C61.7551 25.9466 61.3817 25.025 60.6351 24.255C59.8884 23.485 58.9784 22.8433 57.9051 22.33C56.8551 21.8166 55.8051 21.28 54.7551 20.72C53.7051 20.1366 52.8067 19.3666 52.0601 18.41C51.3134 17.4533 50.9401 16.3216 50.9401 15.015C50.9401 13.2183 51.5351 11.8183 52.7251 10.815C53.9151 9.78828 55.4434 9.27495 57.3101 9.27495C59.1767 9.27495 60.7867 9.71828 62.1401 10.6049C63.5167 11.4916 64.2051 12.6933 64.2051 14.21C64.2051 15.7033 63.5984 16.45 62.3851 16.45C61.6617 16.45 61.1017 16.2283 60.7051 15.785C60.3084 15.3416 60.1101 14.77 60.1101 14.07C60.1101 13.37 60.2501 12.8333 60.5301 12.46C59.7134 11.7133 58.7101 11.34 57.5201 11.34C56.3301 11.34 55.4317 11.6433 54.8251 12.2499C54.2417 12.8566 53.9501 13.615 53.9501 14.525C53.9501 15.435 54.2184 16.2166 54.7551 16.87C55.2917 17.5 55.9567 18.025 56.7501 18.445C57.5434 18.8416 58.4067 19.3083 59.3401 19.845C60.2734 20.3583 61.1367 20.8716 61.9301 21.385C62.7234 21.8983 63.3884 22.5983 63.9251 23.485C64.4617 24.3483 64.7301 25.34 64.7301 26.46C64.7301 28.3033 64.0884 29.8083 62.8051 30.975C61.5451 32.1416 59.9234 32.725 57.9401 32.725C55.9567 32.725 54.1951 32.27 52.6551 31.36C51.1384 30.4266 50.3801 29.1316 50.3801 27.475C50.3801 26.075 50.9867 25.375 52.2001 25.375ZM77.8715 12.11C77.7081 13.93 77.6265 16.8583 77.6265 20.895C77.6265 24.9083 77.7198 28 77.9065 30.17L79.9365 30.38C79.9831 30.7533 80.0065 31.0566 80.0065 31.29C80.0065 31.5 79.9715 31.815 79.9015 32.235C79.0615 32.2116 77.8481 32.2 76.2615 32.2C74.6981 32.2 73.5548 32.2116 72.8315 32.235C72.7615 31.885 72.7265 31.5933 72.7265 31.36C72.7265 31.1266 72.7498 30.8 72.7965 30.38L74.7215 30.17C74.9081 27.6733 75.0015 24.5116 75.0015 20.685C75.0015 16.835 74.8965 13.9766 74.6865 12.11C73.7765 12.1333 72.5165 12.215 70.9065 12.355L70.8015 14.945C70.4281 15.015 70.0781 15.05 69.7515 15.05C69.4248 15.05 69.1215 15.0383 68.8415 15.015C68.7715 13.1016 68.6665 11.3283 68.5265 9.69495L68.7015 9.51995C70.4281 9.72995 73.1931 9.83495 76.9965 9.83495C80.7998 9.83495 83.1798 9.72995 84.1365 9.51995L84.3115 9.69495C84.1481 11.4916 84.0431 13.1483 83.9965 14.6649C83.7165 14.6883 83.4131 14.7 83.0865 14.7C82.7831 14.7 82.4331 14.665 82.0365 14.595L81.9315 12.2499C80.9515 12.2033 79.5981 12.1566 77.8715 12.11ZM98.257 11.655C98.2104 11.2816 98.187 10.9666 98.187 10.71C98.187 10.4299 98.222 10.0916 98.292 9.69495C99.0387 9.71828 99.9604 9.72995 101.057 9.72995C102.177 9.72995 103.145 9.71828 103.962 9.69495C104.032 10.0916 104.067 10.465 104.067 10.815C104.067 11.1416 104.044 11.4216 103.997 11.655L102.772 11.7599C99.5754 18.6433 97.6854 23.1933 97.102 25.41C97.172 27.1833 97.2654 28.77 97.382 30.17L98.642 30.275C98.6887 30.6483 98.712 30.975 98.712 31.255C98.712 31.5116 98.677 31.8383 98.607 32.235C97.7904 32.2116 96.8454 32.2 95.772 32.2C94.6987 32.2 93.7654 32.2116 92.972 32.235C92.902 31.885 92.867 31.5816 92.867 31.325C92.867 31.045 92.8904 30.695 92.937 30.275L94.162 30.17C94.302 28.14 94.3837 26.53 94.407 25.34C93.8004 23.3333 92.167 19.67 89.507 14.3499C88.7604 12.9033 88.317 12.0399 88.177 11.7599L86.882 11.655C86.8354 11.2816 86.812 10.9666 86.812 10.71C86.812 10.4299 86.847 10.0916 86.917 9.69495C87.7337 9.71828 88.737 9.72995 89.927 9.72995C91.1404 9.72995 92.1437 9.71828 92.937 9.69495C93.007 10.045 93.042 10.36 93.042 10.6399C93.042 10.8966 93.0187 11.235 92.972 11.655L91.712 11.7599C92.1554 13.4166 92.8904 15.365 93.917 17.605C94.9437 19.845 95.597 21.2916 95.877 21.945H96.017C96.647 20.7316 97.312 19.1566 98.012 17.22C98.712 15.26 99.2254 13.44 99.552 11.7599L98.257 11.655ZM109.601 30.17C109.811 26.95 109.916 23.555 109.916 19.985C109.916 16.415 109.811 13.6733 109.601 11.7599L108.411 11.655C108.364 11.2816 108.341 10.9666 108.341 10.71C108.341 10.4299 108.376 10.0916 108.446 9.69495C109.263 9.71828 110.208 9.72995 111.281 9.72995C112.354 9.72995 113.288 9.71828 114.081 9.69495C114.151 10.045 114.186 10.36 114.186 10.6399C114.186 10.8966 114.163 11.235 114.116 11.655L112.786 11.7599C112.623 13.9533 112.541 16.975 112.541 20.825C112.541 24.6516 112.623 27.5566 112.786 29.54C113.509 29.61 114.559 29.645 115.936 29.645C117.336 29.645 118.398 29.5866 119.121 29.47L119.226 27.09C119.623 27.02 119.973 26.985 120.276 26.985C120.603 26.985 120.906 26.9966 121.186 27.02C121.256 28.7933 121.361 30.52 121.501 32.2L121.326 32.375C120.229 32.2583 118.001 32.2 114.641 32.2C111.281 32.2 109.204 32.2116 108.411 32.235C108.341 31.885 108.306 31.5816 108.306 31.325C108.306 31.045 108.329 30.695 108.376 30.275L109.601 30.17ZM130.544 11.7599C130.38 13.65 130.299 16.5783 130.299 20.545C130.299 24.5116 130.404 27.72 130.614 30.17L131.874 30.275C131.92 30.6483 131.944 30.975 131.944 31.255C131.944 31.5116 131.909 31.8383 131.839 32.235C131.022 32.2116 130.077 32.2 129.004 32.2C127.93 32.2 126.997 32.2116 126.204 32.235C126.134 31.885 126.099 31.5816 126.099 31.325C126.099 31.045 126.122 30.695 126.169 30.275L127.394 30.17C127.58 27.65 127.674 24.4416 127.674 20.545C127.674 16.625 127.569 13.6966 127.359 11.7599L126.169 11.655C126.122 11.2816 126.099 10.9666 126.099 10.71C126.099 10.4299 126.134 10.0916 126.204 9.69495C127.02 9.71828 127.965 9.72995 129.039 9.72995C130.112 9.72995 131.045 9.71828 131.839 9.69495C131.909 10.045 131.944 10.36 131.944 10.6399C131.944 10.8966 131.92 11.235 131.874 11.655L130.544 11.7599ZM152.012 16.45C151.289 16.45 150.729 16.2283 150.332 15.785C149.935 15.3416 149.737 14.77 149.737 14.07C149.737 13.3466 149.889 12.7866 150.192 12.3899C149.445 11.69 148.419 11.34 147.112 11.34C145.199 11.34 143.752 12.145 142.772 13.755C141.792 15.3416 141.302 17.6866 141.302 20.79C141.302 27.02 143.239 30.135 147.112 30.135C148.045 30.135 148.99 29.9133 149.947 29.47C150.927 29.0033 151.755 28.3966 152.432 27.65C153.155 28.2333 153.622 29.155 153.832 30.415C151.755 31.955 149.515 32.725 147.112 32.725C144.055 32.725 141.839 31.78 140.462 29.89C139.109 28 138.432 25.06 138.432 21.07C138.432 13.2066 141.325 9.27495 147.112 9.27495C148.862 9.27495 150.414 9.74162 151.767 10.675C153.144 11.585 153.832 12.775 153.832 14.245C153.832 15.715 153.225 16.45 152.012 16.45ZM160.767 30.17C160.977 26.95 161.082 23.555 161.082 19.985C161.082 16.415 160.977 13.6733 160.767 11.7599L159.577 11.655C159.53 11.2816 159.507 10.9666 159.507 10.71C159.507 10.4299 159.542 10.0916 159.612 9.69495C160.428 9.71828 161.373 9.72995 162.447 9.72995C163.52 9.72995 164.453 9.71828 165.247 9.69495C165.317 10.045 165.352 10.36 165.352 10.6399C165.352 10.8966 165.328 11.235 165.282 11.655L163.952 11.7599C163.788 13.9533 163.707 16.975 163.707 20.825C163.707 24.6516 163.788 27.5566 163.952 29.54C164.675 29.61 165.725 29.645 167.102 29.645C168.502 29.645 169.563 29.5866 170.287 29.47L170.392 27.09C170.788 27.02 171.138 26.985 171.442 26.985C171.768 26.985 172.072 26.9966 172.352 27.02C172.422 28.7933 172.527 30.52 172.667 32.2L172.492 32.375C171.395 32.2583 169.167 32.2 165.807 32.2C162.447 32.2 160.37 32.2116 159.577 32.235C159.507 31.885 159.472 31.5816 159.472 31.325C159.472 31.045 159.495 30.695 159.542 30.275L160.767 30.17ZM187.554 17.99C188.068 17.9433 188.418 17.92 188.604 17.92C188.791 17.92 189.094 17.955 189.514 18.025C189.491 18.7483 189.479 19.6816 189.479 20.825C189.479 21.9683 189.491 22.715 189.514 23.065C189.164 23.135 188.826 23.17 188.499 23.17C188.173 23.17 187.858 23.1466 187.554 23.1L187.449 21.875C186.189 21.8283 185.151 21.805 184.334 21.805C183.518 21.805 182.479 21.8283 181.219 21.875C181.219 24.9316 181.301 27.4866 181.464 29.54C182.281 29.61 183.436 29.645 184.929 29.645C186.446 29.645 187.636 29.5866 188.499 29.47L188.604 27.09C189.001 27.02 189.363 26.985 189.689 26.985C190.039 26.985 190.331 26.9966 190.564 27.02C190.588 28.84 190.693 30.5666 190.879 32.2L190.704 32.375C189.561 32.2583 187.053 32.2 183.179 32.2C179.329 32.2 177.299 32.2116 177.089 32.235C177.019 31.885 176.984 31.5583 176.984 31.255C176.984 30.9283 177.008 30.6016 177.054 30.275L178.279 30.17C178.489 26.5533 178.594 23.2866 178.594 20.37C178.594 17.43 178.454 14.595 178.174 11.865L176.984 11.7599C176.938 11.4566 176.914 11.1416 176.914 10.815C176.914 10.4883 176.949 10.15 177.019 9.79995C177.603 9.82328 179.738 9.83495 183.424 9.83495C187.111 9.83495 189.479 9.72995 190.529 9.51995L190.704 9.69495C190.518 11.7483 190.413 13.405 190.389 14.6649C190.156 14.6883 189.864 14.7 189.514 14.7C189.164 14.7 188.803 14.665 188.429 14.595L188.324 12.2149C187.134 12.145 185.898 12.11 184.614 12.11C183.331 12.11 182.269 12.145 181.429 12.2149C181.289 13.685 181.219 16.0883 181.219 19.425C181.593 19.4483 182.351 19.46 183.494 19.46C184.638 19.46 185.956 19.4133 187.449 19.32L187.554 17.99Z" fill="#BA7894"/>
<defs>
<clipPath id="clip0_105_65">
<rect width="39.0244" height="40" fill="white" transform="translate(0 1.19995)"/>
</clipPath>
</defs>
</svg>
